# xmcd
#
# Track frame offsets:
# 150
# 12422
# 24953
# 39415
# 54913
# 68099
# 83178
# 96738
# 108322
# 122770
# 136914
# 149254
# 163321
# 175408
# 187966
# 201753
#
# Disc length: 2883 seconds
#
#
# Revision: 0
# Processed by: cddbd v1.5PL3 Copyright (c) Steve Scherf et al.
# Submitted via: FreeRIP 2.11 
#
DISCID=dc0b4110
DTITLE=Ella Fitzgerald - The divine Ella
DYEAR=1900
DGENRE=Jazz
TTITLE0=I m begining to see the light
TTITLE1=Can 't Ehlp loving dat Man
TTITLE2=into each life some rain must fall
TTITLE3=Benny s coming home on Saturday
TTITLE4=This love of mine
TTITLE5=He s my guy
TTITLE6=Cow Cow Boogie
TTITLE7=It s only a paper moon
TTITLE8=Somebody nomody loves
TTITLE9=Time alone will tell
TTITLE10=Mama come home
TTITLE11=A kiss goodnight
TTITLE12=Stone cold dead in De MArket
TTITLE13=Make love to me
TTITLE14=Jim
TTITLE15=An her tears flowers like wine
EXTD=
EXTT0=
EXTT1=
EXTT2=
EXTT3=
EXTT4=
EXTT5=
EXTT6=
EXTT7=
EXTT8=
EXTT9=
EXTT10=
EXTT11=
EXTT12=
EXTT13=
EXTT14=
EXTT15=
PLAYORDER=
